<svg xmlns="http://www.w3.org/2000/svg" version="1.0" preserveAspectRatio="xMidYMid meet" viewBox="277.3 107.61 735.52 583.09">

<g transform="translate(0.000000,825.000000) scale(0.100000,-0.100000)" fill="#000000" stroke="none">
<path d="M9131 7169 c0 -14 -8 -49 -17 -78 -16 -56 -38 -72 -119 -87 l-40 -8 50 -6 c87 -10 99 -22 120 -125 12 -56 13 -57 14 -20 3 106 24 129 126 144 l50 8 -54 8 c-80 12 -110 43 -120 125 -5 36 -9 53 -10 39z"/>
<path d="M8761 6512 c-1 -54 -35 -92 -83 -93 -33 -1 -33 -1 7 -10 50 -11 75 -40 76 -88 l1 -36 9 44 c11 55 16 61 76 77 48 13 48 13 12 13 -52 1 -78 27 -88 86 l-9 50 -1 -43z"/>
<path d="M9431 6502 c-1 -44 -39 -82 -83 -83 l-33 -1 37 -8 c50 -9 78 -36 79 -74 1 -30 1 -30 15 11 15 42 34 54 104 66 21 4 20 5 -7 6 -57 2 -82 20 -97 70 -14 44 -15 45 -15 13z"/>
<path d="M10108 6243 c7 -3 16 -2 19 1 4 3 -2 6 -13 5 -11 0 -14 -3 -6 -6z"/>
<path d="M9960 6224 c-260 -49 -446 -87 -453 -93 -4 -4 3 -17 16 -29 l23 -22 75 24 c40 13 160 47 264 75 105 29 195 54 200 56 26 9 -58 2 -125 -11z"/>
<path d="M9445 6124 c-11 -3 -38 -9 -60 -14 -22 -5 -112 -25 -200 -45 -164 -37 -421 -100 -555 -137 -41 -11 -97 -26 -125 -33 -27 -8 -95 -27 -150 -43 -55 -16 -150 -44 -211 -62 l-112 -32 -53 40 c-30 22 -88 57 -129 76 -135 64 -167 69 -461 74 -328 5 -315 11 -237 -121 150 -251 178 -301 171 -308 -8 -7 -30 -16 -211 -85 -39 -15 -74 -25 -77 -22 -3 2 -5 125 -5 273 l-1 268 -67 -7 c-170 -17 -322 -84 -446 -195 -21 -20 -109 -119 -195 -221 -85 -102 -158 -187 -161 -190 -3 -3 -55 -63 -115 -135 -348 -413 -339 -404 -421 -451 -43 -24 -79 -44 -81 -44 -2 0 -50 -26 -106 -59 -56 -32 -120 -69 -142 -81 -22 -12 -55 -31 -74 -43 l-34 -20 -26 29 c-14 17 -67 79 -118 140 -50 60 -156 185 -235 278 -79 93 -158 187 -176 210 -19 23 -53 64 -76 91 -24 28 -120 141 -215 253 -184 217 -222 256 -310 315 -103 68 -281 127 -386 127 l-35 0 0 -1320 0 -1320 -40 -59 c-52 -76 -103 -188 -132 -287 -19 -66 -23 -103 -23 -224 0 -125 3 -156 24 -223 21 -68 41 -106 41 -79 0 5 25 51 57 103 156 260 397 529 743 828 52 46 119 103 148 129 30 25 80 65 112 89 32 23 63 50 69 60 6 10 11 14 11 9 0 -5 7 -3 15 4 8 7 13 16 10 20 -3 4 1 7 8 6 7 0 28 11 47 26 66 50 125 94 189 138 34 25 82 59 106 75 23 17 68 47 99 68 31 22 56 44 56 50 0 6 3 8 6 4 5 -5 80 40 244 148 163 107 536 332 728 437 29 16 50 34 47 39 -4 5 0 6 8 3 7 -2 45 12 83 33 38 22 86 47 106 58 20 10 34 23 31 28 -3 6 -1 7 4 4 6 -4 44 11 84 33 41 22 134 70 207 106 l133 67 -113 114 c-146 147 -150 155 -13 22 68 -66 116 -105 125 -102 12 4 12 3 1 -5 -9 -7 -10 -12 -2 -16 6 -4 44 8 83 27 638 303 1005 461 1583 680 323 123 983 347 1021 347 20 0 17 14 -9 38 -24 22 -26 23 -62 16z m-2435 -287 c0 -2 -10 -12 -22 -23 l-23 -19 19 23 c18 21 26 27 26 19z m-80 -80 c0 -1 -53 -54 -117 -117 l-118 -115 115 118 c107 109 120 122 120 114z m-240 -240 c0 -1 -37 -38 -82 -82 l-83 -80 80 83 c74 76 85 87 85 79z m-177 -172 c4 3 5 2 2 -2 -3 -4 14 -26 37 -50 23 -24 40 -43 37 -43 -2 0 -31 28 -64 62 -33 34 -51 55 -39 45 11 -9 24 -15 27 -12z m-43 -48 c0 -2 -15 -16 -32 -33 l-33 -29 29 33 c28 30 36 37 36 29z m-70 -70 c0 -2 -17 -19 -37 -38 l-38 -34 34 38 c33 34 41 42 41 34z m-80 -80 c0 -2 -17 -19 -37 -38 l-38 -34 34 38 c33 34 41 42 41 34z m-80 -80 c0 -4 -638 -640 -646 -644 -12 -7 24 30 321 327 302 302 325 325 325 317z m435 -117 c3 -6 -1 -7 -9 -4 -18 7 -21 14 -7 14 6 0 13 -4 16 -10z m-2965 -405 c13 -14 21 -25 18 -25 -2 0 -15 11 -28 25 -13 14 -21 25 -18 25 2 0 15 -11 28 -25z m135 -135 c21 -22 37 -40 34 -40 -3 0 -23 18 -44 40 -21 22 -37 40 -34 40 3 0 23 -18 44 -40z m1725 -13 c0 -2 -15 -16 -32 -33 l-33 -29 29 33 c28 30 36 37 36 29z m-1087 -169 c48 -58 87 -108 87 -111 0 -3 -45 -39 -100 -81 l-100 -75 0 202 c1 161 3 199 13 186 7 -8 51 -63 100 -121z m1017 99 c0 -2 -12 -14 -27 -28 l-28 -24 24 28 c23 25 31 32 31 24z"/>
<path d="M7085 5940 c4 -6 11 -8 16 -5 14 9 11 15 -7 15 -8 0 -12 -5 -9 -10z"/>
<path d="M9350 5888 c-91 -33 -210 -76 -265 -96 -147 -53 -155 -63 -420 -515 -82 -141 -152 -256 -155 -256 -3 -1 -12 11 -21 27 -86 147 -242 408 -245 411 -6 6 -123 -41 -384 -154 -279 -122 -310 -136 -310 -146 0 -4 56 -101 124 -216 378 -638 394 -667 384 -688 -10 -18 -118 -202 -318 -540 -42 -71 -146 -247 -230 -390 -84 -143 -188 -318 -230 -390 -163 -275 -190 -322 -190 -328 0 -4 117 -7 260 -7 300 0 368 10 495 69 104 49 195 119 261 201 48 59 185 282 331 542 50 90 83 133 83 111 0 -5 30 -59 66 -119 37 -60 69 -116 72 -124 9 -22 190 -329 222 -375 55 -80 189 -191 280 -231 148 -67 195 -74 503 -74 147 0 267 2 267 5 0 3 -20 38 -44 78 -23 39 -98 167 -166 282 -114 194 -212 361 -525 890 -65 110 -147 249 -182 309 l-64 109 262 446 c145 245 295 500 334 566 166 278 285 483 285 491 0 4 -10 19 -22 33 l-23 26 27 -24 c16 -14 30 -23 31 -20 11 12 87 146 87 152 0 4 -57 7 -126 7 -97 0 -124 -3 -118 -12 6 -10 4 -10 -7 0 -8 7 -41 12 -88 11 -67 0 -95 -7 -241 -61z m-1810 -3111 c0 -2 -12 -14 -27 -28 l-28 -24 24 28 c23 25 31 32 31 24z m-60 -61 c0 -2 -8 -10 -17 -17 -16 -13 -17 -12 -4 4 13 16 21 21 21 13z m-40 -40 c0 -2 -8 -10 -17 -17 -16 -13 -17 -12 -4 4 13 16 21 21 21 13z m-40 -40 c0 -2 -8 -10 -17 -17 -16 -13 -17 -12 -4 4 13 16 21 21 21 13z"/>
<path d="M6995 4898 c-11 -6 -22 -13 -24 -15 -3 -1 6 -15 20 -31 l23 -27 -28 27 -29 27 -86 -46 c-47 -25 -144 -79 -214 -119 -71 -41 -130 -74 -132 -74 -2 0 -88 -52 -192 -116 -307 -190 -635 -418 -893 -622 -148 -117 -400 -335 -400 -345 0 -5 40 -57 88 -116 48 -58 110 -133 137 -166 26 -33 51 -60 55 -60 4 0 83 93 176 206 226 275 546 666 669 816 l100 122 3 -881 2 -881 78 6 c148 12 298 74 419 176 80 67 129 129 182 231 81 156 75 82 79 1043 1 471 -1 857 -5 857 -5 0 -17 -6 -28 -12z"/>
<path d="M3226 3298 c-8 -52 -33 -78 -76 -79 -21 0 -19 -3 14 -15 49 -18 47 -15 62 -71 12 -47 13 -47 13 -13 1 47 23 75 63 85 32 8 32 8 7 12 -37 6 -62 36 -69 86 l-6 42 -8 -47z"/>
<path d="M2820 3006 c0 -8 -12 -19 -27 -24 -25 -9 -26 -11 -6 -11 12 -1 28 -11 34 -23 l12 -22 8 22 c5 13 17 22 31 23 21 1 21 1 -4 11 -16 5 -28 16 -28 24 0 8 -4 14 -10 14 -5 0 -10 -6 -10 -14z"/>
<path d="M4324 2847 c-107 -119 -170 -191 -177 -203 -10 -17 44 -32 146 -41 l77 -6 0 147 c0 80 -2 146 -4 146 -2 0 -21 -19 -42 -43z"/>
<path d="M3030 2775 c0 -47 -23 -101 -49 -115 -12 -6 -47 -14 -79 -19 l-57 -8 61 -8 c74 -9 110 -37 119 -92 14 -85 18 -91 26 -33 4 30 10 63 14 73 10 24 49 43 110 52 l50 9 -53 7 c-89 12 -122 47 -122 130 0 21 -4 39 -10 39 -5 0 -10 -16 -10 -35z"/>
<path d="M3420 1720 c-122 -22 -190 -89 -190 -190 0 -126 144 -210 307 -180 61 12 143 58 143 80 0 6 -10 15 -23 21 -19 8 -32 6 -72 -15 -121 -65 -277 -9 -277 99 0 106 148 161 268 100 36 -19 58 -24 83 -20 l34 6 -33 34 c-50 52 -154 80 -240 65z"/>
<path d="M4361 1720 c-176 -37 -241 -210 -118 -315 123 -105 357 -71 407 59 14 39 12 112 -4 145 -44 85 -171 134 -285 111z m146 -75 c45 -18 83 -69 83 -111 0 -75 -71 -127 -171 -125 -97 1 -161 48 -163 120 -2 101 133 164 251 116z"/>
<path d="M5190 1530 l0 -180 35 0 34 0 3 148 3 147 88 -117 c48 -65 91 -118 95 -118 4 1 45 53 92 117 l85 115 3 -146 3 -146 34 0 35 0 0 180 0 180 -54 0 -55 0 -72 -100 c-40 -55 -76 -97 -79 -93 -4 5 -37 50 -74 101 l-68 92 -54 0 -54 0 0 -180z"/>
<path d="M6250 1530 l0 -180 35 0 34 0 3 68 3 67 130 2 c72 1 143 7 158 12 80 31 81 171 1 201 -36 14 -138 12 -153 -2 -11 -10 -13 -10 -7 0 6 9 -17 12 -98 12 l-106 0 0 -180z m334 104 c19 -18 21 -55 4 -72 -8 -8 -54 -12 -140 -12 l-128 0 0 50 0 50 124 0 c100 0 128 -3 140 -16z"/>
<path d="M7237 1658 c-14 -29 -43 -82 -63 -118 -19 -36 -52 -93 -71 -127 l-35 -63 41 0 c37 0 42 3 61 40 l20 40 125 0 125 0 20 -40 c18 -35 25 -40 55 -40 19 0 35 5 35 11 0 6 -42 87 -92 180 l-93 168 -50 1 -51 0 -27 -52z m122 -85 c23 -40 41 -75 41 -78 0 -3 -39 -5 -86 -5 -47 0 -84 3 -82 8 9 22 82 151 84 149 1 -1 21 -34 43 -74z"/>
<path d="M8048 1530 l3 -180 34 0 34 0 3 148 3 147 123 -148 124 -148 51 3 52 3 3 178 2 177 -40 0 -39 0 -3 -144 -3 -144 -120 144 -119 144 -56 0 -55 0 3 -180z"/>
<path d="M8950 1704 c0 -3 45 -52 100 -109 l100 -105 0 -70 0 -70 35 0 35 0 0 73 0 72 99 105 99 105 -42 3 c-40 3 -43 1 -116 -78 l-75 -81 -80 80 c-71 73 -83 81 -117 81 -21 0 -38 -3 -38 -6z"/>
</g>
</svg>